<svg width="30" height="30" viewBox="0 0 30 30" fill="none" xmlns="http://www.w3.org/2000/svg">
<path d="M26.2 0.599976H3.8C2.04 0.599976 0.599998 2.03998 0.599998 3.79998V26.2C0.599998 27.9616 2.04 29.4 3.8 29.4H15V18.2H11.8V14.24H15V10.96C15 7.49757 16.9392 5.06558 21.0256 5.06558L23.9104 5.06878V9.23677H21.9952C20.4048 9.23677 19.8 10.4304 19.8 11.5376V14.2416H23.9088L23 18.2H19.8V29.4H26.2C27.96 29.4 29.4 27.9616 29.4 26.2V3.79998C29.4 2.03998 27.96 0.599976 26.2 0.599976Z" fill="#BFBFBF"/>
</svg>
