<svg width="28" height="28" viewBox="0 0 28 28" fill="none" xmlns="http://www.w3.org/2000/svg">
<path d="M15.3707 0.668022C16.3436 0.664289 17.3166 0.674068 18.2893 0.697356L18.548 0.706689C18.8467 0.717356 19.1413 0.730689 19.4973 0.746689C20.916 0.813356 21.884 1.03736 22.7333 1.36669C23.6133 1.70536 24.3547 2.16402 25.096 2.90536C25.7738 3.5715 26.2984 4.37728 26.6333 5.26669C26.9627 6.11602 27.1867 7.08536 27.2533 8.50402C27.2693 8.85869 27.2827 9.15469 27.2933 9.45336L27.3013 9.71202C27.325 10.6843 27.3352 11.6568 27.332 12.6294L27.3333 13.624V15.3707C27.3366 16.3437 27.3264 17.3167 27.3027 18.2894L27.2947 18.548C27.284 18.8467 27.2707 19.1414 27.2547 19.4974C27.188 20.916 26.9613 21.884 26.6333 22.7334C26.2995 23.6237 25.7748 24.4302 25.096 25.096C24.4293 25.7738 23.6231 26.2984 22.7333 26.6334C21.884 26.9627 20.916 27.1867 19.4973 27.2534C19.1413 27.2694 18.8467 27.2827 18.548 27.2934L18.2893 27.3014C17.3166 27.3251 16.3436 27.3353 15.3707 27.332L14.376 27.3334H12.6307C11.6577 27.3366 10.6847 27.3264 9.712 27.3027L9.45333 27.2947C9.13681 27.2832 8.82036 27.2699 8.50399 27.2547C7.08533 27.188 6.11733 26.9614 5.26666 26.6334C4.37691 26.2992 3.57098 25.7745 2.90533 25.096C2.22672 24.4297 1.70163 23.6234 1.36666 22.7334C1.03733 21.884 0.813329 20.916 0.746663 19.4974C0.731813 19.181 0.71848 18.8645 0.706663 18.548L0.699996 18.2894C0.675414 17.3167 0.664302 16.3437 0.666663 15.3707V12.6294C0.662942 11.6568 0.67272 10.6843 0.695996 9.71202L0.70533 9.45336C0.715996 9.15469 0.72933 8.85869 0.74533 8.50402C0.811996 7.08402 1.036 6.11736 1.36533 5.26669C1.70049 4.37685 2.22661 3.57128 2.90666 2.90669C3.57186 2.22769 4.37728 1.70212 5.26666 1.36669C6.11733 1.03736 7.08399 0.813356 8.50399 0.746689L9.45333 0.706689L9.712 0.700023C10.6842 0.675453 11.6568 0.664341 12.6293 0.666689L15.3707 0.668022ZM14 7.33469C13.1167 7.3222 12.2397 7.48539 11.42 7.81478C10.6003 8.14417 9.85419 8.63319 9.22512 9.25343C8.59605 9.87366 8.09653 10.6127 7.75558 11.4277C7.41463 12.2427 7.23905 13.1173 7.23905 14.0007C7.23905 14.8841 7.41463 15.7587 7.75558 16.5737C8.09653 17.3886 8.59605 18.1277 9.22512 18.748C9.85419 19.3682 10.6003 19.8572 11.42 20.1866C12.2397 20.516 13.1167 20.6792 14 20.6667C15.7681 20.6667 17.4638 19.9643 18.714 18.7141C19.9643 17.4638 20.6667 15.7681 20.6667 14C20.6667 12.2319 19.9643 10.5362 18.714 9.28598C17.4638 8.03573 15.7681 7.33469 14 7.33469ZM14 10.0014C14.5313 9.99157 15.0593 10.0878 15.5531 10.2843C16.0468 10.4808 16.4964 10.7738 16.8757 11.1461C17.255 11.5184 17.5562 11.9625 17.7619 12.4525C17.9676 12.9425 18.0736 13.4686 18.0737 14C18.0738 14.5314 17.968 15.0576 17.7624 15.5476C17.5569 16.0377 17.2558 16.4819 16.8766 16.8543C16.4975 17.2267 16.048 17.5199 15.5543 17.7166C15.0606 17.9133 14.5327 18.0096 14.0013 18C12.9405 18 11.923 17.5786 11.1729 16.8285C10.4228 16.0783 10.0013 15.0609 10.0013 14C10.0013 12.9392 10.4228 11.9217 11.1729 11.1716C11.923 10.4214 12.9405 10 14.0013 10L14 10.0014ZM21 5.33469C20.5699 5.35191 20.1631 5.53489 19.8648 5.84532C19.5665 6.15575 19.4 6.56954 19.4 7.00002C19.4 7.43051 19.5665 7.8443 19.8648 8.15473C20.1631 8.46516 20.5699 8.64814 21 8.66536C21.442 8.66536 21.8659 8.48976 22.1785 8.1772C22.4911 7.86464 22.6667 7.44072 22.6667 6.99869C22.6667 6.55666 22.4911 6.13274 22.1785 5.82018C21.8659 5.50762 21.442 5.33202 21 5.33202V5.33469Z" fill="#BFBFBF"/>
</svg>
