<svg width="22" height="24" viewBox="0 0 22 24" fill="none" xmlns="http://www.w3.org/2000/svg">
<path d="M17.1867 3.76C16.2752 2.7195 15.773 1.38324 15.7733 0H11.6533V16.5333C11.6216 17.428 11.2438 18.2755 10.5997 18.8973C9.95555 19.519 9.09527 19.8665 8.20001 19.8667C6.30667 19.8667 4.73334 18.32 4.73334 16.4C4.73334 14.1067 6.94667 12.3867 9.22667 13.0933V8.88C4.62667 8.26667 0.600006 11.84 0.600006 16.4C0.600006 20.84 4.28001 24 8.18667 24C12.3733 24 15.7733 20.6 15.7733 16.4V8.01333C17.444 9.21313 19.4498 9.85686 21.5067 9.85333V5.73333C21.5067 5.73333 19 5.85333 17.1867 3.76Z" fill="#BFBFBF"/>
</svg>
