<svg width="28" height="22" viewBox="0 0 28 22" fill="none" xmlns="http://www.w3.org/2000/svg">
<path d="M27.3333 2.73337C26.3311 3.16816 25.2712 3.45559 24.1867 3.5867C25.3309 2.90313 26.1884 1.82775 26.6 0.560035C25.5247 1.20012 24.3477 1.6511 23.12 1.89337C22.2994 1.00346 21.2066 0.411097 20.0131 0.209171C18.8195 0.00724411 17.5927 0.20718 16.5251 0.777621C15.4574 1.34806 14.6092 2.25674 14.1137 3.36115C13.6181 4.46556 13.5031 5.70322 13.7867 6.88003C11.6126 6.77007 9.48592 6.20397 7.54487 5.21852C5.60382 4.23306 3.89179 2.85029 2.52 1.16004C2.03885 2.00026 1.78602 2.9518 1.78666 3.92004C1.78496 4.81921 2.00562 5.70486 2.429 6.49812C2.85239 7.29138 3.46536 7.96765 4.21333 8.4667C3.34397 8.44305 2.49318 8.20977 1.73333 7.7867V7.85337C1.73985 9.11322 2.18132 10.3322 2.98308 11.304C3.78484 12.2758 4.89767 12.9409 6.13333 13.1867C5.65767 13.3315 5.16383 13.4078 4.66667 13.4134C4.32252 13.4093 3.97923 13.3781 3.64 13.32C3.99188 14.4038 4.67283 15.3509 5.5881 16.0296C6.50337 16.7083 7.60743 17.0848 8.74667 17.1067C6.82294 18.6204 4.44784 19.4465 2 19.4534C1.55431 19.4548 1.10898 19.4281 0.666664 19.3734C3.1659 20.987 6.07842 21.8437 9.05333 21.84C11.1063 21.8614 13.1428 21.4734 15.0442 20.6988C16.9455 19.9242 18.6734 18.7785 20.1269 17.3287C21.5805 15.8788 22.7306 14.1539 23.5101 12.2546C24.2895 10.3553 24.6827 8.31967 24.6667 6.2667V5.56003C25.7129 4.77978 26.6153 3.82327 27.3333 2.73337Z" fill="#BFBFBF"/>
</svg>
