<svg width="30" height="22" viewBox="0 0 30 22" fill="none" xmlns="http://www.w3.org/2000/svg">
<path d="M29.6667 7.94726C29.7326 6.03879 29.3153 4.14461 28.4534 2.44059C27.8686 1.74139 27.057 1.26954 26.16 1.10726C22.4501 0.770623 18.7247 0.632648 15 0.693922C11.2889 0.629867 7.57698 0.763389 3.88003 1.09392C3.14912 1.22688 2.47272 1.56971 1.93336 2.08059C0.733364 3.18726 0.600031 5.08059 0.466697 6.68059C0.273247 9.55734 0.273247 12.4438 0.466697 15.3206C0.505271 16.2211 0.639356 17.115 0.866697 17.9873C1.02746 18.6607 1.35273 19.2837 1.81336 19.8006C2.35639 20.3385 3.04854 20.7009 3.80003 20.8406C6.67459 21.1954 9.57099 21.3425 12.4667 21.2806C17.1334 21.3473 21.2267 21.2806 26.0667 20.9073C26.8366 20.7761 27.5483 20.4133 28.1067 19.8673C28.48 19.4938 28.7588 19.0367 28.92 18.5339C29.3969 17.0707 29.6311 15.5394 29.6134 14.0006C29.6667 13.2539 29.6667 8.74726 29.6667 7.94726ZM11.9867 14.8006V6.54726L19.88 10.6939C17.6667 11.9206 14.7467 13.3073 11.9867 14.8006Z" fill="#BFBFBF"/>
</svg>
