<svg width="18" height="20" viewBox="0 0 18 20" fill="none" xmlns="http://www.w3.org/2000/svg">
<path d="M7.9695 0.893412C8.248 0.630108 8.61673 0.483398 9 0.483398C9.38327 0.483398 9.752 0.630108 10.0305 0.893412L17.2965 7.76191C17.7465 8.18641 18 8.77891 18 9.39691V17.7519C18 18.3486 17.7629 18.9209 17.341 19.3429C16.919 19.7649 16.3467 20.0019 15.75 20.0019H12.75C12.4544 20.0019 12.1617 19.9437 11.8886 19.8305C11.6155 19.7173 11.3674 19.5515 11.1585 19.3424C10.9495 19.1333 10.7838 18.8851 10.6708 18.6119C10.5579 18.3388 10.4998 18.046 10.5 17.7504V14.0004C10.5 13.8015 10.421 13.6107 10.2803 13.4701C10.1397 13.3294 9.94891 13.2504 9.75 13.2504H8.25C8.05109 13.2504 7.86032 13.3294 7.71967 13.4701C7.57902 13.6107 7.5 13.8015 7.5 14.0004V17.7504C7.5 18.3472 7.26295 18.9194 6.84099 19.3414C6.41903 19.7634 5.84674 20.0004 5.25 20.0004H2.25C1.65326 20.0004 1.08097 19.7634 0.65901 19.3414C0.237053 18.9194 0 18.3472 0 17.7504V9.39541C0 8.77741 0.255 8.18491 0.705 7.76041L7.9695 0.890412V0.893412ZM9 1.98241L1.734 8.85241C1.66024 8.92234 1.60146 9.00654 1.56123 9.09988C1.52101 9.19322 1.50017 9.29377 1.5 9.39541V17.7504C1.5 17.9493 1.57902 18.1401 1.71967 18.2807C1.86032 18.4214 2.05109 18.5004 2.25 18.5004H5.25C5.44891 18.5004 5.63968 18.4214 5.78033 18.2807C5.92098 18.1401 6 17.9493 6 17.7504V14.0004C6 13.4037 6.23705 12.8314 6.65901 12.4094C7.08097 11.9875 7.65326 11.7504 8.25 11.7504H9.75C10.3467 11.7504 10.919 11.9875 11.341 12.4094C11.7629 12.8314 12 13.4037 12 14.0004V17.7504C12 17.9493 12.079 18.1401 12.2197 18.2807C12.3603 18.4214 12.5511 18.5004 12.75 18.5004H15.75C15.9489 18.5004 16.1397 18.4214 16.2803 18.2807C16.421 18.1401 16.5 17.9493 16.5 17.7504V9.39541C16.5 9.29352 16.4793 9.19269 16.4391 9.09907C16.3988 9.00545 16.3399 8.92102 16.266 8.85091L9 1.98241Z" fill="white"/>
</svg>
