<svg width="32" height="32" viewBox="0 0 32 32" fill="none" xmlns="http://www.w3.org/2000/svg">
<path d="M16 2.66699C23.364 2.66699 29.3333 8.63633 29.3333 16.0003C29.3333 23.3643 23.364 29.3337 16 29.3337C13.8429 29.3365 11.7177 28.8139 9.80797 27.811L4.08797 29.3003C3.89685 29.3501 3.69603 29.3491 3.50543 29.2973C3.31482 29.2456 3.14105 29.1449 3.00132 29.0054C2.8616 28.8658 2.76078 28.6921 2.70886 28.5015C2.65694 28.311 2.65571 28.1102 2.70531 27.919L4.19331 22.2003C3.18771 20.2886 2.66367 18.1604 2.66664 16.0003C2.66664 8.63633 8.63597 2.66699 16 2.66699ZM17.6693 17.3337H11.6666L11.5306 17.343C11.2913 17.3759 11.072 17.4944 10.9132 17.6765C10.7544 17.8586 10.6669 18.0921 10.6669 18.3337C10.6669 18.5753 10.7544 18.8087 10.9132 18.9908C11.072 19.1729 11.2913 19.2914 11.5306 19.3243L11.6666 19.3337H17.6693L17.804 19.3243C18.0433 19.2914 18.2627 19.1729 18.4214 18.9908C18.5802 18.8087 18.6677 18.5753 18.6677 18.3337C18.6677 18.0921 18.5802 17.8586 18.4214 17.6765C18.2627 17.4944 18.0433 17.3759 17.804 17.343L17.6693 17.3337ZM20.3333 12.667H11.6666L11.5306 12.6763C11.2913 12.7093 11.072 12.8277 10.9132 13.0098C10.7544 13.192 10.6669 13.4254 10.6669 13.667C10.6669 13.9086 10.7544 14.142 10.9132 14.3241C11.072 14.5063 11.2913 14.6247 11.5306 14.6577L11.6666 14.667H20.3333L20.4693 14.6577C20.7087 14.6247 20.928 14.5063 21.0868 14.3241C21.2455 14.142 21.333 13.9086 21.333 13.667C21.333 13.4254 21.2455 13.192 21.0868 13.0098C20.928 12.8277 20.7087 12.7093 20.4693 12.6763L20.3333 12.667Z" fill="#053559"/>
<circle cx="26" cy="6" r="4.5" fill="#FF3366" stroke="#FAFAFA"/>
</svg>
