<svg width="32" height="32" viewBox="0 0 32 32" fill="none" xmlns="http://www.w3.org/2000/svg">
<path d="M28 25.3337V26.667H4V25.3337L6.66667 22.667V14.667C6.66667 10.5337 9.37333 6.89366 13.3333 5.72033V5.33366C13.3333 4.62641 13.6143 3.94814 14.1144 3.44804C14.6145 2.94794 15.2928 2.66699 16 2.66699C16.7072 2.66699 17.3855 2.94794 17.8856 3.44804C18.3857 3.94814 18.6667 4.62641 18.6667 5.33366V5.72033C22.6267 6.89366 25.3333 10.5337 25.3333 14.667V22.667L28 25.3337ZM18.6667 28.0003C18.6667 28.7076 18.3857 29.3858 17.8856 29.8859C17.3855 30.386 16.7072 30.667 16 30.667C15.2928 30.667 14.6145 30.386 14.1144 29.8859C13.6143 29.3858 13.3333 28.7076 13.3333 28.0003" fill="#053559"/>
<circle cx="24" cy="9" r="4.5" fill="#FF3366" stroke="#FAFAFA"/>
</svg>
