<svg width="24" height="24" viewBox="0 0 24 24" fill="none" xmlns="http://www.w3.org/2000/svg">
<path d="M22 1.74999V16.25C21.9999 16.3862 21.9626 16.5197 21.8924 16.6363C21.8221 16.753 21.7213 16.8483 21.601 16.912C21.217 17.116 20.818 16.877 20.462 16.664L20.459 16.662C20.369 16.608 20.282 16.555 20.198 16.512C19.552 16.1826 18.8837 15.8989 18.198 15.663C16.46 15.056 13.877 14.44 10.495 14.412C10.4982 14.4412 10.4999 14.4706 10.5 14.5C10.5 16.779 10.994 18.779 11.406 20.047C11.774 21.178 10.968 22.5 9.674 22.5H7.661C6.965 22.5 6.301 22.08 6.061 21.371C5.684 20.255 5 17.811 5 14.75V14.293C3.72156 13.932 2.61698 13.1204 1.89036 12.0083C1.16374 10.8962 0.864194 9.55867 1.04706 8.24288C1.22993 6.92708 1.88286 5.72193 2.8852 4.85011C3.88754 3.97828 5.17156 3.49871 6.5 3.49999H10.25C13.755 3.49999 16.425 2.88999 18.205 2.28999C18.8902 2.06248 19.5591 1.78851 20.207 1.46999C20.3729 1.3876 20.5363 1.30023 20.697 1.20799C20.745 1.17999 20.792 1.15299 20.839 1.12299C20.9522 1.04924 21.0831 1.00739 21.2181 1.00183C21.3531 0.996267 21.487 1.02721 21.6059 1.0914C21.7247 1.15558 21.8241 1.25063 21.8934 1.36654C21.9628 1.48244 21.9996 1.61491 22 1.74999ZM10.5 12.912C14.064 12.941 16.813 13.59 18.693 14.247C19.43 14.505 20.033 14.764 20.5 14.987V2.99299C20.033 3.20899 19.427 3.45999 18.685 3.71099C16.807 4.34499 14.061 4.97099 10.5 4.99899V12.912ZM6.5 4.99999C5.43914 4.99999 4.42172 5.42141 3.67158 6.17156C2.92143 6.9217 2.5 7.93912 2.5 8.99999C2.5 10.0609 2.92143 11.0783 3.67158 11.8284C4.42172 12.5786 5.43914 13 6.5 13H9V4.99999H6.5ZM6.5 14.75C6.5 17.597 7.138 19.873 7.482 20.891C7.5 20.942 7.556 21 7.661 21H9.674C9.761 21 9.85301 20.957 9.92301 20.853C9.95798 20.8039 9.98129 20.7475 9.99116 20.6881C10.001 20.6286 9.99722 20.5677 9.98 20.51C9.537 19.148 9 16.986 9 14.5H6.5V14.75Z" fill="#0D1821"/>
</svg>
